<mxfile host="app.diagrams.net" modified="2021-02-14T23:55:17.581Z" agent="5.0 (Windows NT 10.0; Win64; x64) AppleWebKit/537.36 (KHTML, like Gecko) Chrome/88.0.4324.150 Safari/537.36" etag="Ul2xxsHF-f52e28eE-Cg" version="14.3.1" type="github" pages="2">
  <diagram id="piDafpqhtRUU5qUU-vj8" name="Page-1">
    <mxGraphModel dx="2076" dy="1158" grid="1" gridSize="10" guides="1" tooltips="1" connect="1" arrows="1" fold="1" page="1" pageScale="1" pageWidth="1100" pageHeight="850" math="0" shadow="0">
      <root>
        <mxCell id="0" />
        <mxCell id="1" parent="0" />
        <mxCell id="DZ1ZdTM2AhFmud3eLuOm-12" value="MyPhotoAlbumsApp" style="strokeWidth=1;shadow=0;dashed=0;align=center;html=1;shape=mxgraph.mockup.containers.window;align=left;verticalAlign=top;spacingLeft=8;strokeColor2=#008cff;strokeColor3=#c4c4c4;fontColor=#666666;mainText=;fontSize=17;labelBackgroundColor=none;" vertex="1" parent="1">
          <mxGeometry width="1100" height="850" as="geometry" />
        </mxCell>
        <mxCell id="sH05hH4Nlx9RyeKkd0yj-1" value="" style="verticalLabelPosition=bottom;shadow=0;dashed=0;align=center;html=1;verticalAlign=top;strokeWidth=1;shape=mxgraph.mockup.containers.userFemale;strokeColor=#666666;strokeColor2=#008cff;" vertex="1" parent="1">
          <mxGeometry x="50" y="210" width="100" height="100" as="geometry" />
        </mxCell>
        <mxCell id="sH05hH4Nlx9RyeKkd0yj-3" value="Sam" style="text;html=1;strokeColor=none;fillColor=none;align=center;verticalAlign=middle;whiteSpace=wrap;rounded=0;fontSize=24;" vertex="1" parent="1">
          <mxGeometry x="80" y="320" width="40" height="20" as="geometry" />
        </mxCell>
        <mxCell id="sH05hH4Nlx9RyeKkd0yj-5" value="" style="verticalLabelPosition=bottom;shadow=0;dashed=0;align=center;html=1;verticalAlign=top;strokeWidth=1;shape=mxgraph.mockup.forms.colorPicker;chosenColor=#aaddff;fontSize=24;" vertex="1" parent="1">
          <mxGeometry x="50" y="370" width="100" height="100" as="geometry" />
        </mxCell>
        <mxCell id="sH05hH4Nlx9RyeKkd0yj-6" value="Background Color" style="text;html=1;strokeColor=none;fillColor=none;align=center;verticalAlign=middle;whiteSpace=wrap;rounded=0;fontSize=24;" vertex="1" parent="1">
          <mxGeometry x="40" y="500" width="120" height="20" as="geometry" />
        </mxCell>
        <mxCell id="sH05hH4Nlx9RyeKkd0yj-7" value="" style="verticalLabelPosition=bottom;shadow=0;dashed=0;align=center;html=1;verticalAlign=top;strokeWidth=1;shape=mxgraph.mockup.forms.splitter;strokeColor=#999999;direction=north;fontSize=24;" vertex="1" parent="1">
          <mxGeometry x="210" y="30" width="10" height="820" as="geometry" />
        </mxCell>
        <mxCell id="_rLkys-aNLimPo2z-gKM-1" value="Sam&#39;s Photo Albums" style="text;html=1;strokeColor=none;fillColor=none;align=center;verticalAlign=middle;whiteSpace=wrap;rounded=0;fontSize=36;" vertex="1" parent="1">
          <mxGeometry x="430" y="120" width="360" height="20" as="geometry" />
        </mxCell>
        <mxCell id="_rLkys-aNLimPo2z-gKM-7" value="AlbumTitle1" style="swimlane;fontSize=18;" vertex="1" parent="1">
          <mxGeometry x="380" y="210" width="200" height="200" as="geometry" />
        </mxCell>
        <mxCell id="_rLkys-aNLimPo2z-gKM-9" value="AlbumTitle2" style="swimlane;fontSize=18;" vertex="1" parent="1">
          <mxGeometry x="660" y="210" width="200" height="200" as="geometry" />
        </mxCell>
        <mxCell id="_rLkys-aNLimPo2z-gKM-10" value="AlbumTitle4" style="swimlane;fontSize=18;" vertex="1" parent="1">
          <mxGeometry x="660" y="470" width="200" height="200" as="geometry" />
        </mxCell>
        <mxCell id="_rLkys-aNLimPo2z-gKM-11" value="AlbumTitle3" style="swimlane;fontSize=18;" vertex="1" parent="1">
          <mxGeometry x="380" y="470" width="200" height="200" as="geometry" />
        </mxCell>
      </root>
    </mxGraphModel>
  </diagram>
  <diagram id="E-Hp7eALE1bjv7V0PlX1" name="Page-3">
    <mxGraphModel dx="2076" dy="1158" grid="1" gridSize="10" guides="1" tooltips="1" connect="1" arrows="1" fold="1" page="1" pageScale="1" pageWidth="1100" pageHeight="850" math="0" shadow="0">
      <root>
        <mxCell id="-hgHn5_GYHJia_32sEw4-0" />
        <mxCell id="-hgHn5_GYHJia_32sEw4-1" parent="-hgHn5_GYHJia_32sEw4-0" />
        <mxCell id="-hgHn5_GYHJia_32sEw4-2" value="MyPhotoAlbumsApp" style="strokeWidth=1;shadow=0;dashed=0;align=center;html=1;shape=mxgraph.mockup.containers.window;align=left;verticalAlign=top;spacingLeft=8;strokeColor2=#008cff;strokeColor3=#c4c4c4;fontColor=#666666;mainText=;fontSize=17;labelBackgroundColor=none;" vertex="1" parent="-hgHn5_GYHJia_32sEw4-1">
          <mxGeometry width="1100" height="850" as="geometry" />
        </mxCell>
        <mxCell id="-hgHn5_GYHJia_32sEw4-3" value="" style="verticalLabelPosition=bottom;shadow=0;dashed=0;align=center;html=1;verticalAlign=top;strokeWidth=1;shape=mxgraph.mockup.containers.userFemale;strokeColor=#666666;strokeColor2=#008cff;" vertex="1" parent="-hgHn5_GYHJia_32sEw4-1">
          <mxGeometry x="50" y="210" width="100" height="100" as="geometry" />
        </mxCell>
        <mxCell id="-hgHn5_GYHJia_32sEw4-4" value="Sam" style="text;html=1;strokeColor=none;fillColor=none;align=center;verticalAlign=middle;whiteSpace=wrap;rounded=0;fontSize=24;" vertex="1" parent="-hgHn5_GYHJia_32sEw4-1">
          <mxGeometry x="80" y="320" width="40" height="20" as="geometry" />
        </mxCell>
        <mxCell id="-hgHn5_GYHJia_32sEw4-5" value="" style="verticalLabelPosition=bottom;shadow=0;dashed=0;align=center;html=1;verticalAlign=top;strokeWidth=1;shape=mxgraph.mockup.forms.colorPicker;chosenColor=#aaddff;fontSize=24;" vertex="1" parent="-hgHn5_GYHJia_32sEw4-1">
          <mxGeometry x="50" y="370" width="100" height="100" as="geometry" />
        </mxCell>
        <mxCell id="-hgHn5_GYHJia_32sEw4-6" value="Background Color" style="text;html=1;strokeColor=none;fillColor=none;align=center;verticalAlign=middle;whiteSpace=wrap;rounded=0;fontSize=24;" vertex="1" parent="-hgHn5_GYHJia_32sEw4-1">
          <mxGeometry x="40" y="500" width="120" height="20" as="geometry" />
        </mxCell>
        <mxCell id="sxVszc--Llo4qrqbdTkJ-0" value="" style="verticalLabelPosition=bottom;shadow=0;dashed=0;align=center;html=1;verticalAlign=top;strokeWidth=1;shape=mxgraph.mockup.forms.splitter;strokeColor=#999999;direction=north;fontSize=24;" vertex="1" parent="-hgHn5_GYHJia_32sEw4-1">
          <mxGeometry x="210" y="30" width="10" height="820" as="geometry" />
        </mxCell>
        <mxCell id="sxVszc--Llo4qrqbdTkJ-1" value="AlbumTitle1" style="text;html=1;strokeColor=none;fillColor=none;align=center;verticalAlign=middle;whiteSpace=wrap;rounded=0;fontSize=36;" vertex="1" parent="-hgHn5_GYHJia_32sEw4-1">
          <mxGeometry x="480" y="120" width="360" height="20" as="geometry" />
        </mxCell>
        <mxCell id="E-VcALM6K96ZpO3JtMTg-4" value="" style="verticalLabelPosition=bottom;shadow=0;dashed=0;align=center;html=1;verticalAlign=top;strokeWidth=1;shape=mxgraph.mockup.containers.userMale;strokeColor=#666666;strokeColor2=#008cff;" vertex="1" parent="-hgHn5_GYHJia_32sEw4-1">
          <mxGeometry x="300" y="210" width="200" height="200" as="geometry" />
        </mxCell>
        <mxCell id="hF8wnXuEBuyL4ukI2M3a-0" value="" style="verticalLabelPosition=bottom;shadow=0;dashed=0;align=center;html=1;verticalAlign=top;strokeWidth=1;shape=mxgraph.mockup.containers.userMale;strokeColor=#666666;strokeColor2=#008cff;" vertex="1" parent="-hgHn5_GYHJia_32sEw4-1">
          <mxGeometry x="820" y="210" width="200" height="200" as="geometry" />
        </mxCell>
        <mxCell id="hF8wnXuEBuyL4ukI2M3a-1" value="" style="verticalLabelPosition=bottom;shadow=0;dashed=0;align=center;html=1;verticalAlign=top;strokeWidth=1;shape=mxgraph.mockup.containers.userMale;strokeColor=#666666;strokeColor2=#008cff;" vertex="1" parent="-hgHn5_GYHJia_32sEw4-1">
          <mxGeometry x="560" y="210" width="200" height="200" as="geometry" />
        </mxCell>
        <mxCell id="hF8wnXuEBuyL4ukI2M3a-2" value="" style="verticalLabelPosition=bottom;shadow=0;dashed=0;align=center;html=1;verticalAlign=top;strokeWidth=1;shape=mxgraph.mockup.containers.userMale;strokeColor=#666666;strokeColor2=#008cff;" vertex="1" parent="-hgHn5_GYHJia_32sEw4-1">
          <mxGeometry x="300" y="470" width="200" height="200" as="geometry" />
        </mxCell>
        <mxCell id="hF8wnXuEBuyL4ukI2M3a-3" value="" style="verticalLabelPosition=bottom;shadow=0;dashed=0;align=center;html=1;verticalAlign=top;strokeWidth=1;shape=mxgraph.mockup.containers.userMale;strokeColor=#666666;strokeColor2=#008cff;" vertex="1" parent="-hgHn5_GYHJia_32sEw4-1">
          <mxGeometry x="820" y="470" width="200" height="200" as="geometry" />
        </mxCell>
        <mxCell id="hF8wnXuEBuyL4ukI2M3a-4" value="" style="verticalLabelPosition=bottom;shadow=0;dashed=0;align=center;html=1;verticalAlign=top;strokeWidth=1;shape=mxgraph.mockup.containers.userMale;strokeColor=#666666;strokeColor2=#008cff;" vertex="1" parent="-hgHn5_GYHJia_32sEw4-1">
          <mxGeometry x="560" y="470" width="200" height="200" as="geometry" />
        </mxCell>
      </root>
    </mxGraphModel>
  </diagram>
</mxfile>
